<?xml version="1.0" encoding="UTF-8"?>
<svg version="1.1" xmlns="http://www.w3.org/2000/svg" width="66" height="81">
<path d="M0 0 C9.24493588 1.98815825 15.72185723 7.14877894 22.0546875 13.96875 C22.1990625 12.669375 22.3434375 11.37 22.4921875 10.03125 C22.9296875 6.09375 22.9296875 6.09375 24.0546875 4.96875 C25.76385425 5.00127739 27.47237905 5.07018677 29.1796875 5.15625 C33.86435658 5.22214688 36.00208887 4.57376333 39.890625 1.86328125 C45.00189182 -0.24949872 51.64386906 0.55720396 57.0546875 0.96875 C58.60498868 2.51905118 58.29873849 4.00551001 58.3671875 6.15625 C58.30763497 10.84601146 57.16309957 13.35627111 54.0546875 16.96875 C52.39198463 18.30702304 50.72552569 19.64064785 49.0546875 20.96875 C48.00824684 22.60665712 47.0148692 24.27883021 46.0546875 25.96875 C45.08243854 27.2033957 44.10249748 28.43200235 43.1171875 29.65625 C38.05048326 36.39079703 35.27940876 43.42994272 35.58203125 51.9296875 C35.86981368 54.26251931 35.86981368 54.26251931 38.5546875 55.53125 C39.3796875 56.005625 40.2046875 56.48 41.0546875 56.96875 C41.57830883 60.00463962 41.47946085 62.9225183 41.0546875 65.96875 C39.30923145 67.71420605 36.89344533 67.0989816 34.5234375 67.1015625 C33.40324219 67.10285156 32.28304687 67.10414062 31.12890625 67.10546875 C29.94941406 67.10160156 28.76992188 67.09773438 27.5546875 67.09375 C25.78544922 67.09955078 25.78544922 67.09955078 23.98046875 67.10546875 C22.86027344 67.10417969 21.74007813 67.10289063 20.5859375 67.1015625 C19.55017578 67.10043457 18.51441406 67.09930664 17.44726562 67.09814453 C15.0546875 66.96875 15.0546875 66.96875 14.0546875 65.96875 C13.58283763 58.65507708 13.58283763 58.65507708 15.4296875 55.96875 C17.0546875 54.96875 17.0546875 54.96875 19.0546875 54.96875 C16.98148954 37.79524449 9.95028146 21.43071318 -3.3203125 9.90625 C-4.9453125 7.96875 -4.9453125 7.96875 -5.3828125 4.84375 C-5.16625 3.420625 -5.16625 3.420625 -4.9453125 1.96875 C-1.9453125 -0.03125 -1.9453125 -0.03125 0 0 Z " fill="#79E2C3" transform="translate(7.9453125,0.03125)"/>
<path d="M0 0 C12.45342908 5.40775208 20.31435224 13.15893448 27 25 C27 25.66 27 26.32 27 27 C33.47639741 22.08194359 33.47639741 22.08194359 37 15 C35.6078125 14.62875 35.6078125 14.62875 34.1875 14.25 C30.79442422 12.91938205 29.68048479 12.17424904 28 9 C28 7.68 28 6.36 28 5 C34.52307692 5.61538462 34.52307692 5.61538462 36.9375 7.5625 C37.288125 8.036875 37.63875 8.51125 38 9 C38.391875 8.236875 38.78375 7.47375 39.1875 6.6875 C41.29191983 3.56715336 42.52255738 2.43633499 46 1 C49.01861132 0.76662837 51.97961938 0.82233055 55 1 C54.58443583 5.84824868 52.62551755 7.88036862 49 11 C45.92678462 13.01679759 43.64626491 13.20257027 40 13 C39.67 14.32 39.34 15.64 39 17 C40.98 16.34 42.96 15.68 45 15 C44.113125 15.94875 43.22625 16.8975 42.3125 17.875 C38.62628384 22.1871774 36.2544964 26.81945509 34 32 C33.67773438 32.7321875 33.35546875 33.464375 33.0234375 34.21875 C30.61161904 40.43988921 30.69829123 46.39593024 31 53 C32.98 53.66 34.96 54.32 37 55 C37 55.99 37 56.98 37 58 C31.06 58 25.12 58 19 58 C20.65 56.35 22.3 54.7 24 53 C26.19978784 39.80127298 18.32309142 23.99620907 11.203125 13.30078125 C7.88338752 8.85732732 4.30299782 5.46338849 0 2 C0 1.34 0 0.68 0 0 Z " fill="#515654" transform="translate(7,4)"/>
<path d="M0 0 C-0.41556417 4.84824868 -2.37448245 6.88036862 -6 10 C-9.07321538 12.01679759 -11.35373509 12.20257027 -15 12 C-15.33 12.66 -15.66 13.32 -16 14 C-19.93910067 13.72517902 -21.75363543 13.19816281 -24.875 10.6875 C-27 8 -27 8 -27 4 C-20.47692308 4.61538462 -20.47692308 4.61538462 -18.0625 6.5625 C-17.711875 7.036875 -17.36125 7.51125 -17 8 C-16.4121875 6.8553125 -16.4121875 6.8553125 -15.8125 5.6875 C-11.64596012 -0.49047292 -6.87513334 -0.40441961 0 0 Z " fill="#568832" transform="translate(62,5)"/>
<path d="M0 0 C5.61 0 11.22 0 17 0 C17 2.97 17 5.94 17 9 C11.33333333 9 5.66666667 9 0 9 C0 6.03 0 3.06 0 0 Z M2 2 C2.99 2.33 3.98 2.66 5 3 C5 3.66 5 4.32 5 5 C4.01 5 3.02 5 2 5 C2 5.66 2 6.32 2 7 C3.32 7 4.64 7 6 7 C6 5.35 6 3.7 6 2 C4.68 2 3.36 2 2 2 Z " fill="#8AEACD" transform="translate(34,69)"/>
<path d="M0 0 C1.32 0.33 2.64 0.66 4 1 C4.33 1.99 4.66 2.98 5 4 C5.33 2.68 5.66 1.36 6 0 C7.32 0 8.64 0 10 0 C10.33 0.66 10.66 1.32 11 2 C11.33 1.34 11.66 0.68 12 0 C12.66 0 13.32 0 14 0 C14 2.97 14 5.94 14 9 C12.68 8.67 11.36 8.34 10 8 C9.67 8.33 9.34 8.66 9 9 C7.00041636 9.04080783 4.99954746 9.04254356 3 9 C3 8.34 3 7.68 3 7 C2.01 7.66 1.02 8.32 0 9 C-0.99 8.67 -1.98 8.34 -3 8 C-2.01 5.36 -1.02 2.72 0 0 Z " fill="#8AEACD" transform="translate(10,69)"/>
<path d="M0 0 C0.66 0 1.32 0 2 0 C2 2.31 2 4.62 2 7 C3.32 7 4.64 7 6 7 C6.66 4.69 7.32 2.38 8 0 C9.32 0 10.64 0 12 0 C12.66 2.97 13.32 5.94 14 9 C13.01 9 12.02 9 11 9 C11 8.34 11 7.68 11 7 C10.34 7 9.68 7 9 7 C9 7.66 9 8.32 9 9 C6.03 9 3.06 9 0 9 C0 6.03 0 3.06 0 0 Z " fill="#8AEACD" transform="translate(52,69)"/>
<path d="M0 0 C1.134375 0.020625 2.26875 0.04125 3.4375 0.0625 C3.1075 0.7225 2.7775 1.3825 2.4375 2.0625 C1.1175 2.0625 -0.2025 2.0625 -1.5625 2.0625 C-1.5625 3.7125 -1.5625 5.3625 -1.5625 7.0625 C-1.2325 5.7425 -0.9025 4.4225 -0.5625 3.0625 C0.7575 3.0625 2.0775 3.0625 3.4375 3.0625 C3.4375 5.0425 3.4375 7.0225 3.4375 9.0625 C1.10455225 9.10491723 -1.22952567 9.10342937 -3.5625 9.0625 C-4.5625 8.0625 -4.5625 8.0625 -4.6875 4.5625 C-4.52739028 0.0794279 -4.52739028 0.0794279 0 0 Z " fill="#8AEACD" transform="translate(29.5625,68.9375)"/>
<path d="M0 0 C-1.1858237 3.37503669 -2.27573689 5.64722731 -5 8 C-5.66 7.67 -6.32 7.34 -7 7 C-6.34 5.68 -5.68 4.36 -5 3 C-7.9719385 4.12451727 -10.33440687 5.22293791 -13 7 C-9.87303606 0.02446506 -7.37889653 -0.36289655 0 0 Z " fill="#517308" transform="translate(60,6)"/>
<path d="M0 0 C1.32 0.33 2.64 0.66 4 1 C5.32 0.67 6.64 0.34 8 0 C7.01 2.97 6.02 5.94 5 9 C4.01 9 3.02 9 2 9 C1.34 6.03 0.68 3.06 0 0 Z " fill="#8AEACD" transform="translate(1,69)"/>
<path d="M0 0 C3 1 3 1 4.1875 3.1875 C5.08797102 6.30451506 5.28697122 8.77157372 5 12 C4.34 12.66 3.68 13.32 3 14 C2.01 9.38 1.02 4.76 0 0 Z " fill="#61716C" transform="translate(28,35)"/>
<path d="M0 0 C0 0.99 0 1.98 0 3 C-5.94 3 -11.88 3 -18 3 C-16 1 -16 1 -13.6875 0.83984375 C-12.3571875 0.88818359 -12.3571875 0.88818359 -11 0.9375 C-6.96077708 1.07253216 -3.9990467 0 0 0 Z " fill="#454B49" transform="translate(44,59)"/>
<path d="M0 0 C3 2 3 2 3.6875 4.125 C3.790625 4.74375 3.89375 5.3625 4 6 C1.625 5.6875 1.625 5.6875 -1 5 C-1.66 4.01 -2.32 3.02 -3 2 C-2.01 2 -1.02 2 0 2 C0 1.34 0 0.68 0 0 Z " fill="#55842D" transform="translate(39,12)"/>
</svg>
